<mxfile host="app.diagrams.net" modified="2022-11-27T05:56:52.398Z" agent="5.0 (Windows NT 10.0; Win64; x64) AppleWebKit/537.36 (KHTML, like Gecko) Chrome/107.0.0.0 Safari/537.36" etag="qq2oBFrSbYlWd516W4YA" version="20.6.0" type="github">
  <diagram id="QIMUagScdIdmGEgs5ksX" name="Page-1">
    <mxGraphModel dx="584" dy="371" grid="1" gridSize="10" guides="1" tooltips="1" connect="1" arrows="1" fold="1" page="1" pageScale="1" pageWidth="850" pageHeight="1100" math="0" shadow="0">
      <root>
        <mxCell id="0" />
        <mxCell id="1" parent="0" />
        <mxCell id="bN4hetcuTy7aG8nyouE3-260" style="edgeStyle=orthogonalEdgeStyle;rounded=0;orthogonalLoop=1;jettySize=auto;html=1;exitX=1;exitY=0.75;exitDx=0;exitDy=0;entryX=0;entryY=0.75;entryDx=0;entryDy=0;entryPerimeter=0;endSize=3;strokeWidth=0.5;curved=1;exitPerimeter=0;" parent="1" source="bN4hetcuTy7aG8nyouE3-186" target="bN4hetcuTy7aG8nyouE3-121" edge="1">
          <mxGeometry relative="1" as="geometry" />
        </mxCell>
        <mxCell id="bN4hetcuTy7aG8nyouE3-267" value="&lt;font style=&quot;font-size: 6px;&quot;&gt;lead investor of (n:n)&lt;/font&gt;" style="edgeLabel;html=1;align=center;verticalAlign=middle;resizable=0;points=[];fontSize=6;fontStyle=3" parent="bN4hetcuTy7aG8nyouE3-260" vertex="1" connectable="0">
          <mxGeometry x="-0.4778" y="2" relative="1" as="geometry">
            <mxPoint x="18" y="-98" as="offset" />
          </mxGeometry>
        </mxCell>
        <mxCell id="bN4hetcuTy7aG8nyouE3-263" style="edgeStyle=orthogonalEdgeStyle;rounded=0;orthogonalLoop=1;jettySize=auto;html=1;exitX=1;exitY=0.36;exitDx=0;exitDy=0;entryX=0;entryY=0.51;entryDx=0;entryDy=0;entryPerimeter=0;endSize=3;strokeWidth=0.5;curved=1;exitPerimeter=0;" parent="1" source="bN4hetcuTy7aG8nyouE3-186" target="bN4hetcuTy7aG8nyouE3-121" edge="1">
          <mxGeometry relative="1" as="geometry">
            <Array as="points">
              <mxPoint x="440" y="230" />
              <mxPoint x="440" y="148" />
            </Array>
          </mxGeometry>
        </mxCell>
        <mxCell id="bN4hetcuTy7aG8nyouE3-274" value="&lt;font style=&quot;font-size: 6px;&quot;&gt;launched (1:n)&lt;/font&gt;" style="edgeLabel;html=1;align=center;verticalAlign=middle;resizable=0;points=[];fontSize=6;fontStyle=3" parent="bN4hetcuTy7aG8nyouE3-263" vertex="1" connectable="0">
          <mxGeometry x="-0.2637" y="2" relative="1" as="geometry">
            <mxPoint x="36" y="-38" as="offset" />
          </mxGeometry>
        </mxCell>
        <mxCell id="bN4hetcuTy7aG8nyouE3-262" style="edgeStyle=orthogonalEdgeStyle;rounded=0;orthogonalLoop=1;jettySize=auto;html=1;exitX=1;exitY=0.18;exitDx=0;exitDy=0;entryX=0;entryY=0.25;entryDx=0;entryDy=0;entryPerimeter=0;strokeWidth=0.5;endSize=3;curved=1;exitPerimeter=0;" parent="1" source="bN4hetcuTy7aG8nyouE3-186" target="bN4hetcuTy7aG8nyouE3-121" edge="1">
          <mxGeometry relative="1" as="geometry">
            <Array as="points">
              <mxPoint x="430" y="220" />
              <mxPoint x="430" y="134" />
            </Array>
          </mxGeometry>
        </mxCell>
        <mxCell id="bN4hetcuTy7aG8nyouE3-268" value="&lt;font style=&quot;font-size: 6px;&quot;&gt;funding_round_investor (n:n)&lt;/font&gt;" style="edgeLabel;html=1;align=center;verticalAlign=middle;resizable=0;points=[];fontSize=6;fontStyle=3" parent="bN4hetcuTy7aG8nyouE3-262" vertex="1" connectable="0">
          <mxGeometry x="-0.5153" y="2" relative="1" as="geometry">
            <mxPoint x="26" y="-68" as="offset" />
          </mxGeometry>
        </mxCell>
        <mxCell id="mSgQFC-y2hR3Ud8ihsHk-7" style="edgeStyle=orthogonalEdgeStyle;curved=1;rounded=1;sketch=0;orthogonalLoop=1;jettySize=auto;html=1;exitX=1;exitY=0.25;exitDx=0;exitDy=0;entryX=1;entryY=0.25;entryDx=0;entryDy=0;" parent="1" source="bN4hetcuTy7aG8nyouE3-121" target="bN4hetcuTy7aG8nyouE3-121" edge="1">
          <mxGeometry relative="1" as="geometry">
            <mxPoint x="570.2222222222222" y="133.55555555555554" as="targetPoint" />
          </mxGeometry>
        </mxCell>
        <mxCell id="bN4hetcuTy7aG8nyouE3-121" value="&lt;h6 style=&quot;&quot;&gt;&lt;br&gt;&lt;/h6&gt;" style="rounded=0;whiteSpace=wrap;html=1;strokeWidth=0.7;verticalAlign=top;labelPosition=center;verticalLabelPosition=middle;align=center;spacing=0;spacingBottom=0;points=[[0,0,0,0,0],[0,0.25,0,0,0],[0,0.51,0,0,0],[0,0.75,0,0,0],[0,1,0,0,0],[0.24,1,0,0,0],[0.26,0,0,0,0],[0.5,0,0,0,0],[0.5,1,0,0,0],[0.76,0,0,0,0],[0.76,1,0,0,0],[1,0,0,0,0],[1,0.25,0,0,0],[1,0.51,0,0,0],[1,0.75,0,0,0],[1,1,0,0,0]];fillColor=#dae8fc;strokeColor=#6c8ebf;" parent="1" vertex="1">
          <mxGeometry x="521" y="120" width="90" height="55" as="geometry" />
        </mxCell>
        <mxCell id="bN4hetcuTy7aG8nyouE3-323" style="edgeStyle=orthogonalEdgeStyle;rounded=0;orthogonalLoop=1;jettySize=auto;html=1;entryX=1;entryY=0.5;entryDx=0;entryDy=0;fontSize=8;endSize=3;strokeWidth=0.5;curved=1;" parent="1" target="bN4hetcuTy7aG8nyouE3-186" edge="1">
          <mxGeometry relative="1" as="geometry">
            <mxPoint x="480" y="238" as="sourcePoint" />
          </mxGeometry>
        </mxCell>
        <mxCell id="bN4hetcuTy7aG8nyouE3-324" value="&lt;font style=&quot;font-size: 6px;&quot;&gt;in_org (n:1)&lt;/font&gt;" style="edgeLabel;html=1;align=center;verticalAlign=middle;resizable=0;points=[];fontSize=6;fontStyle=3" parent="bN4hetcuTy7aG8nyouE3-323" vertex="1" connectable="0">
          <mxGeometry x="0.2494" relative="1" as="geometry">
            <mxPoint x="14" y="-1" as="offset" />
          </mxGeometry>
        </mxCell>
        <mxCell id="bN4hetcuTy7aG8nyouE3-302" style="edgeStyle=orthogonalEdgeStyle;rounded=0;orthogonalLoop=1;jettySize=auto;html=1;entryX=0.5;entryY=0;entryDx=0;entryDy=0;fontSize=9;strokeWidth=0.51;endSize=3;curved=1;exitX=0;exitY=0.75;exitDx=0;exitDy=0;exitPerimeter=0;" parent="1" source="bN4hetcuTy7aG8nyouE3-186" target="bN4hetcuTy7aG8nyouE3-226" edge="1">
          <mxGeometry relative="1" as="geometry">
            <mxPoint x="330" y="390" as="sourcePoint" />
            <Array as="points">
              <mxPoint x="300" y="280" />
              <mxPoint x="224" y="280" />
            </Array>
          </mxGeometry>
        </mxCell>
        <mxCell id="bN4hetcuTy7aG8nyouE3-304" value="&lt;font style=&quot;font-size: 6px;&quot;&gt;has fund&lt;br style=&quot;font-size: 6px;&quot;&gt;(1:n)&lt;/font&gt;" style="edgeLabel;html=1;align=center;verticalAlign=middle;resizable=0;points=[];fontSize=6;fontStyle=3" parent="bN4hetcuTy7aG8nyouE3-302" vertex="1" connectable="0">
          <mxGeometry x="-0.1491" relative="1" as="geometry">
            <mxPoint x="-10" as="offset" />
          </mxGeometry>
        </mxCell>
        <mxCell id="bN4hetcuTy7aG8nyouE3-309" style="edgeStyle=orthogonalEdgeStyle;rounded=0;orthogonalLoop=1;jettySize=auto;html=1;fontSize=9;strokeWidth=0.5;endSize=3;curved=1;exitX=0;exitY=0.51;exitDx=0;exitDy=0;exitPerimeter=0;entryX=1;entryY=0.55;entryDx=0;entryDy=0;entryPerimeter=0;" parent="1" edge="1">
          <mxGeometry relative="1" as="geometry">
            <mxPoint x="301" y="238.04999999999995" as="sourcePoint" />
            <mxPoint x="270" y="240" as="targetPoint" />
            <Array as="points">
              <mxPoint x="281" y="238" />
              <mxPoint x="281" y="230" />
            </Array>
          </mxGeometry>
        </mxCell>
        <mxCell id="bN4hetcuTy7aG8nyouE3-310" value="&lt;font style=&quot;font-size: 6px;&quot;&gt;org_ipo&lt;br style=&quot;font-size: 6px;&quot;&gt;(1:n)&lt;/font&gt;" style="edgeLabel;html=1;align=center;verticalAlign=middle;resizable=0;points=[];fontSize=6;fontStyle=3" parent="bN4hetcuTy7aG8nyouE3-309" vertex="1" connectable="0">
          <mxGeometry x="0.1617" y="-1" relative="1" as="geometry">
            <mxPoint x="4" y="13" as="offset" />
          </mxGeometry>
        </mxCell>
        <mxCell id="bN4hetcuTy7aG8nyouE3-311" style="edgeStyle=orthogonalEdgeStyle;rounded=0;orthogonalLoop=1;jettySize=auto;html=1;exitX=1;exitY=0.18;exitDx=0;exitDy=0;entryX=1;entryY=0.5;entryDx=0;entryDy=0;fontSize=9;endSize=3;strokeWidth=0.5;curved=1;exitPerimeter=0;" parent="1" source="bN4hetcuTy7aG8nyouE3-186" edge="1">
          <mxGeometry relative="1" as="geometry">
            <Array as="points">
              <mxPoint x="400" y="220" />
              <mxPoint x="400" y="151" />
            </Array>
            <mxPoint x="391" y="151" as="targetPoint" />
          </mxGeometry>
        </mxCell>
        <mxCell id="bN4hetcuTy7aG8nyouE3-314" value="is_acquiree (1:n)" style="edgeLabel;html=1;align=center;verticalAlign=middle;resizable=0;points=[];fontSize=6;fontStyle=3" parent="bN4hetcuTy7aG8nyouE3-311" vertex="1" connectable="0">
          <mxGeometry x="-0.0782" y="2" relative="1" as="geometry">
            <mxPoint x="2" y="-10" as="offset" />
          </mxGeometry>
        </mxCell>
        <mxCell id="bN4hetcuTy7aG8nyouE3-312" style="edgeStyle=orthogonalEdgeStyle;rounded=0;orthogonalLoop=1;jettySize=auto;html=1;exitX=0;exitY=0.18;exitDx=0;exitDy=0;fontSize=9;endSize=3;strokeWidth=0.5;curved=1;entryX=0;entryY=0.5;entryDx=0;entryDy=0;exitPerimeter=0;" parent="1" source="bN4hetcuTy7aG8nyouE3-186" edge="1">
          <mxGeometry relative="1" as="geometry">
            <mxPoint x="311.8800000000001" y="240" as="sourcePoint" />
            <mxPoint x="301" y="151" as="targetPoint" />
            <Array as="points">
              <mxPoint x="290" y="220" />
              <mxPoint x="290" y="151" />
            </Array>
          </mxGeometry>
        </mxCell>
        <mxCell id="bN4hetcuTy7aG8nyouE3-313" value="is_acquirer (1:n)" style="edgeLabel;html=1;align=center;verticalAlign=middle;resizable=0;points=[];fontSize=6;fontStyle=3" parent="bN4hetcuTy7aG8nyouE3-312" vertex="1" connectable="0">
          <mxGeometry x="0.094" y="3" relative="1" as="geometry">
            <mxPoint x="5" y="-1" as="offset" />
          </mxGeometry>
        </mxCell>
        <mxCell id="bN4hetcuTy7aG8nyouE3-186" value="" style="rounded=0;whiteSpace=wrap;html=1;fontSize=10;strokeWidth=0.7;points=[[0,0,0,0,0],[0,0.18,0,0,0],[0,0.51,0,0,0],[0,0.75,0,0,0],[0.09,1,0,0,0],[0.26,0,0,0,0],[0.26,1,0,0,0],[0.38,1,0,0,0],[0.5,0,0,0,0],[0.5,1,0,0,0],[0.62,1,0,0,0],[0.73,1,0,0,0],[0.76,0,0,0,0],[1,0,0,0,0],[1,0.18,0,0,0],[1,0.36,0,0,0],[1,0.51,0,0,0],[1,0.75,0,0,0]];fillColor=#dae8fc;strokeColor=#6c8ebf;" parent="1" vertex="1">
          <mxGeometry x="300" y="210" width="90" height="55" as="geometry" />
        </mxCell>
        <mxCell id="bN4hetcuTy7aG8nyouE3-317" style="edgeStyle=orthogonalEdgeStyle;rounded=0;orthogonalLoop=1;jettySize=auto;html=1;exitX=0.107;exitY=1;exitDx=0;exitDy=0;fontSize=9;endSize=3;strokeWidth=0.5;curved=1;exitPerimeter=0;entryX=0.09;entryY=1;entryDx=0;entryDy=0;entryPerimeter=0;" parent="1" source="bN4hetcuTy7aG8nyouE3-186" target="bN4hetcuTy7aG8nyouE3-186" edge="1">
          <mxGeometry relative="1" as="geometry">
            <mxPoint x="310" y="320" as="targetPoint" />
            <Array as="points">
              <mxPoint x="320" y="265" />
              <mxPoint x="320" y="290" />
              <mxPoint x="300" y="290" />
              <mxPoint x="300" y="265" />
            </Array>
          </mxGeometry>
        </mxCell>
        <mxCell id="bN4hetcuTy7aG8nyouE3-318" value="parent_org&lt;br style=&quot;font-size: 6px;&quot;&gt;(1:n)" style="edgeLabel;html=1;align=center;verticalAlign=middle;resizable=0;points=[];fontSize=6;fontStyle=3" parent="bN4hetcuTy7aG8nyouE3-317" vertex="1" connectable="0">
          <mxGeometry x="-0.1294" y="-1" relative="1" as="geometry">
            <mxPoint x="-7" y="11" as="offset" />
          </mxGeometry>
        </mxCell>
        <mxCell id="bN4hetcuTy7aG8nyouE3-226" value="" style="rounded=0;whiteSpace=wrap;html=1;strokeWidth=0.7;fillColor=#dae8fc;strokeColor=#6c8ebf;" parent="1" vertex="1">
          <mxGeometry x="179" y="300" width="90" height="55" as="geometry" />
        </mxCell>
        <mxCell id="bN4hetcuTy7aG8nyouE3-251" style="edgeStyle=orthogonalEdgeStyle;rounded=0;orthogonalLoop=1;jettySize=auto;html=1;entryX=1;entryY=0.25;entryDx=0;entryDy=0;strokeWidth=0.5;endSize=3;exitX=0.75;exitY=0;exitDx=0;exitDy=0;" parent="1" source="bN4hetcuTy7aG8nyouE3-227" target="bN4hetcuTy7aG8nyouE3-121" edge="1">
          <mxGeometry relative="1" as="geometry">
            <Array as="points">
              <mxPoint x="740" y="210" />
              <mxPoint x="740" y="134" />
            </Array>
            <mxPoint x="740" y="200" as="sourcePoint" />
          </mxGeometry>
        </mxCell>
        <mxCell id="bN4hetcuTy7aG8nyouE3-321" style="edgeStyle=orthogonalEdgeStyle;rounded=0;orthogonalLoop=1;jettySize=auto;html=1;exitX=0;exitY=0.5;exitDx=0;exitDy=0;fontSize=8;endSize=3;strokeWidth=0.5;curved=1;" parent="1" source="bN4hetcuTy7aG8nyouE3-227" edge="1">
          <mxGeometry relative="1" as="geometry">
            <mxPoint x="570" y="238" as="targetPoint" />
          </mxGeometry>
        </mxCell>
        <mxCell id="bN4hetcuTy7aG8nyouE3-322" value="&lt;font style=&quot;font-size: 6px;&quot;&gt;has_job (1:n)&lt;/font&gt;" style="edgeLabel;html=1;align=center;verticalAlign=middle;resizable=0;points=[];fontSize=6;fontStyle=3" parent="bN4hetcuTy7aG8nyouE3-321" vertex="1" connectable="0">
          <mxGeometry x="0.2266" y="-1" relative="1" as="geometry">
            <mxPoint x="11" y="1" as="offset" />
          </mxGeometry>
        </mxCell>
        <mxCell id="bN4hetcuTy7aG8nyouE3-227" value="" style="rounded=0;whiteSpace=wrap;html=1;strokeWidth=0.7;points=[[0,0,0,0,0],[0,0.25,0,0,0],[0,0.51,0,0,0],[0,0.75,0,0,0],[0.26,0,0,0,0],[0.26,1,0,0,0],[0.38,1,0,0,0],[0.5,0,0,0,0],[0.5,1,0,0,0],[0.63,1,0,0,0],[0.76,0,0,0,0],[0.76,1,0,0,0],[1,0,0,0,0],[1,0.25,0,0,0],[1,0.51,0,0,0],[1,0.75,0,0,0]];fillColor=#dae8fc;strokeColor=#6c8ebf;" parent="1" vertex="1">
          <mxGeometry x="676" y="210" width="90" height="55" as="geometry" />
        </mxCell>
        <mxCell id="y2qR256ZHgtOFzOP6XMu-1" style="edgeStyle=orthogonalEdgeStyle;rounded=0;orthogonalLoop=1;jettySize=auto;html=1;exitX=0;exitY=0.2;exitDx=0;exitDy=0;entryX=0.73;entryY=1;entryDx=0;entryDy=0;strokeWidth=0.5;endSize=3;curved=1;exitPerimeter=0;entryPerimeter=0;" parent="1" source="bN4hetcuTy7aG8nyouE3-230" target="bN4hetcuTy7aG8nyouE3-186" edge="1">
          <mxGeometry relative="1" as="geometry">
            <mxPoint x="480" y="280" as="targetPoint" />
          </mxGeometry>
        </mxCell>
        <mxCell id="y2qR256ZHgtOFzOP6XMu-3" style="edgeStyle=orthogonalEdgeStyle;rounded=0;orthogonalLoop=1;jettySize=auto;html=1;exitX=0;exitY=0.35;exitDx=0;exitDy=0;entryX=0.62;entryY=1;entryDx=0;entryDy=0;entryPerimeter=0;fontSize=7;endSize=3;strokeWidth=0.5;curved=1;exitPerimeter=0;" parent="1" source="bN4hetcuTy7aG8nyouE3-230" target="bN4hetcuTy7aG8nyouE3-186" edge="1">
          <mxGeometry relative="1" as="geometry" />
        </mxCell>
        <mxCell id="y2qR256ZHgtOFzOP6XMu-5" style="edgeStyle=orthogonalEdgeStyle;rounded=0;orthogonalLoop=1;jettySize=auto;html=1;exitX=0;exitY=0.5;exitDx=0;exitDy=0;entryX=0.5;entryY=1;entryDx=0;entryDy=0;entryPerimeter=0;fontSize=7;endSize=3;strokeWidth=0.5;curved=1;exitPerimeter=0;" parent="1" source="bN4hetcuTy7aG8nyouE3-230" target="bN4hetcuTy7aG8nyouE3-186" edge="1">
          <mxGeometry relative="1" as="geometry" />
        </mxCell>
        <mxCell id="y2qR256ZHgtOFzOP6XMu-7" style="edgeStyle=orthogonalEdgeStyle;rounded=0;orthogonalLoop=1;jettySize=auto;html=1;exitX=0;exitY=0.65;exitDx=0;exitDy=0;entryX=0.38;entryY=1;entryDx=0;entryDy=0;entryPerimeter=0;fontSize=7;endSize=3;strokeWidth=0.5;curved=1;exitPerimeter=0;" parent="1" source="bN4hetcuTy7aG8nyouE3-230" target="bN4hetcuTy7aG8nyouE3-186" edge="1">
          <mxGeometry relative="1" as="geometry" />
        </mxCell>
        <mxCell id="y2qR256ZHgtOFzOP6XMu-9" style="edgeStyle=orthogonalEdgeStyle;rounded=0;orthogonalLoop=1;jettySize=auto;html=1;exitX=0;exitY=0.8;exitDx=0;exitDy=0;fontSize=7;endSize=3;strokeWidth=0.5;curved=1;exitPerimeter=0;entryX=0.26;entryY=1;entryDx=0;entryDy=0;entryPerimeter=0;" parent="1" source="bN4hetcuTy7aG8nyouE3-230" target="bN4hetcuTy7aG8nyouE3-186" edge="1">
          <mxGeometry relative="1" as="geometry">
            <mxPoint x="320" y="270" as="targetPoint" />
          </mxGeometry>
        </mxCell>
        <mxCell id="y2qR256ZHgtOFzOP6XMu-14" style="edgeStyle=orthogonalEdgeStyle;rounded=0;orthogonalLoop=1;jettySize=auto;html=1;exitX=1;exitY=0.35;exitDx=0;exitDy=0;entryX=0.38;entryY=1;entryDx=0;entryDy=0;entryPerimeter=0;fontSize=7;endSize=3;strokeWidth=0.5;curved=1;exitPerimeter=0;" parent="1" source="bN4hetcuTy7aG8nyouE3-230" target="bN4hetcuTy7aG8nyouE3-227" edge="1">
          <mxGeometry relative="1" as="geometry" />
        </mxCell>
        <mxCell id="y2qR256ZHgtOFzOP6XMu-16" style="edgeStyle=orthogonalEdgeStyle;rounded=0;orthogonalLoop=1;jettySize=auto;html=1;exitX=1;exitY=0.5;exitDx=0;exitDy=0;fontSize=7;endSize=3;strokeWidth=0.5;curved=1;exitPerimeter=0;" parent="1" source="bN4hetcuTy7aG8nyouE3-230" edge="1">
          <mxGeometry relative="1" as="geometry">
            <mxPoint x="721" y="265" as="targetPoint" />
          </mxGeometry>
        </mxCell>
        <mxCell id="y2qR256ZHgtOFzOP6XMu-17" value="speaker (n:n)" style="edgeLabel;html=1;align=center;verticalAlign=middle;resizable=0;points=[];fontSize=6;fontStyle=3" parent="y2qR256ZHgtOFzOP6XMu-16" vertex="1" connectable="0">
          <mxGeometry x="-0.1198" relative="1" as="geometry">
            <mxPoint x="12" y="-16" as="offset" />
          </mxGeometry>
        </mxCell>
        <mxCell id="y2qR256ZHgtOFzOP6XMu-18" style="edgeStyle=orthogonalEdgeStyle;rounded=0;orthogonalLoop=1;jettySize=auto;html=1;exitX=1;exitY=0.65;exitDx=0;exitDy=0;entryX=0.63;entryY=1;entryDx=0;entryDy=0;entryPerimeter=0;fontSize=7;endSize=3;strokeWidth=0.5;curved=1;exitPerimeter=0;" parent="1" source="bN4hetcuTy7aG8nyouE3-230" target="bN4hetcuTy7aG8nyouE3-227" edge="1">
          <mxGeometry relative="1" as="geometry" />
        </mxCell>
        <mxCell id="y2qR256ZHgtOFzOP6XMu-19" value="contestant (n:n)" style="edgeLabel;html=1;align=center;verticalAlign=middle;resizable=0;points=[];fontSize=6;fontStyle=3" parent="y2qR256ZHgtOFzOP6XMu-18" vertex="1" connectable="0">
          <mxGeometry x="-0.2629" y="1" relative="1" as="geometry">
            <mxPoint x="10" y="-9" as="offset" />
          </mxGeometry>
        </mxCell>
        <mxCell id="y2qR256ZHgtOFzOP6XMu-20" style="edgeStyle=orthogonalEdgeStyle;rounded=0;orthogonalLoop=1;jettySize=auto;html=1;entryX=0.76;entryY=1;entryDx=0;entryDy=0;entryPerimeter=0;fontSize=7;endSize=3;strokeWidth=0.5;curved=1;exitX=1;exitY=0.8;exitDx=0;exitDy=0;exitPerimeter=0;" parent="1" source="bN4hetcuTy7aG8nyouE3-230" target="bN4hetcuTy7aG8nyouE3-227" edge="1">
          <mxGeometry relative="1" as="geometry">
            <mxPoint x="620" y="390" as="sourcePoint" />
          </mxGeometry>
        </mxCell>
        <mxCell id="y2qR256ZHgtOFzOP6XMu-21" value="exhibitor (n:n)" style="edgeLabel;html=1;align=center;verticalAlign=middle;resizable=0;points=[];fontSize=6;fontStyle=3" parent="y2qR256ZHgtOFzOP6XMu-20" vertex="1" connectable="0">
          <mxGeometry x="-0.6108" relative="1" as="geometry">
            <mxPoint x="33" y="-6" as="offset" />
          </mxGeometry>
        </mxCell>
        <mxCell id="bN4hetcuTy7aG8nyouE3-230" value="" style="rounded=0;whiteSpace=wrap;html=1;strokeWidth=0.7;points=[[0,0.2,0,0,0],[0,0.35,0,0,0],[0,0.5,0,0,0],[0,0.65,0,0,0],[0,0.8,0,0,0],[0.26,0,0,0,0],[0.26,1,0,0,0],[0.5,0,0,0,0],[0.5,1,0,0,0],[0.76,0,0,0,0],[0.76,1,0,0,0],[1,0.2,0,0,0],[1,0.35,0,0,0],[1,0.5,0,0,0],[1,0.65,0,0,0],[1,0.8,0,0,0]];fillColor=#dae8fc;strokeColor=#6c8ebf;" parent="1" vertex="1">
          <mxGeometry x="480" y="300" width="90" height="55" as="geometry" />
        </mxCell>
        <mxCell id="mSgQFC-y2hR3Ud8ihsHk-4" value="&lt;span style=&quot;font-weight: 700;&quot;&gt;&lt;font style=&quot;font-size: 12px;&quot;&gt;Funding Round&lt;/font&gt;&lt;/span&gt;" style="text;html=1;resizable=0;autosize=1;align=center;verticalAlign=middle;points=[];fillColor=none;strokeColor=none;rounded=0;sketch=0;" parent="1" vertex="1">
          <mxGeometry x="511" y="132.5" width="110" height="30" as="geometry" />
        </mxCell>
        <mxCell id="mSgQFC-y2hR3Ud8ihsHk-5" value="&lt;b style=&quot;&quot;&gt;&lt;font style=&quot;font-size: 12px;&quot;&gt;Person&lt;/font&gt;&lt;/b&gt;" style="text;html=1;resizable=0;autosize=1;align=center;verticalAlign=middle;points=[];fillColor=none;strokeColor=none;rounded=0;sketch=0;" parent="1" vertex="1">
          <mxGeometry x="691" y="221" width="60" height="30" as="geometry" />
        </mxCell>
        <mxCell id="mSgQFC-y2hR3Ud8ihsHk-8" value="&lt;font style=&quot;font-size: 6px;&quot;&gt;&lt;b&gt;&lt;i&gt;investment_partners (n:n)&lt;/i&gt;&lt;/b&gt;&lt;/font&gt;" style="edgeLabel;html=1;align=center;verticalAlign=middle;resizable=0;points=[];fontSize=10;" parent="1" vertex="1" connectable="0">
          <mxGeometry x="675" y="134.00444444444446" as="geometry">
            <mxPoint x="-4" y="-1" as="offset" />
          </mxGeometry>
        </mxCell>
        <mxCell id="mSgQFC-y2hR3Ud8ihsHk-9" style="edgeStyle=orthogonalEdgeStyle;rounded=0;orthogonalLoop=1;jettySize=auto;html=1;entryX=1;entryY=0.51;entryDx=0;entryDy=0;strokeWidth=0.5;endSize=3;entryPerimeter=0;exitX=0.5;exitY=0;exitDx=0;exitDy=0;" parent="1" source="bN4hetcuTy7aG8nyouE3-227" target="bN4hetcuTy7aG8nyouE3-121" edge="1">
          <mxGeometry relative="1" as="geometry">
            <Array as="points">
              <mxPoint x="720" y="210" />
              <mxPoint x="720" y="148" />
            </Array>
            <mxPoint x="720" y="180" as="sourcePoint" />
            <mxPoint x="570.0000000000002" y="148.87000000000006" as="targetPoint" />
          </mxGeometry>
        </mxCell>
        <mxCell id="mSgQFC-y2hR3Ud8ihsHk-10" value="&lt;font style=&quot;font-size: 6px;&quot;&gt;&lt;b&gt;&lt;i&gt;funding_round_investor (n:n)&lt;/i&gt;&lt;/b&gt;&lt;/font&gt;" style="edgeLabel;html=1;align=center;verticalAlign=middle;resizable=0;points=[];fontSize=10;" parent="mSgQFC-y2hR3Ud8ihsHk-9" vertex="1" connectable="0">
          <mxGeometry x="-0.3892" y="-1" relative="1" as="geometry">
            <mxPoint x="-50" y="-12" as="offset" />
          </mxGeometry>
        </mxCell>
        <mxCell id="mSgQFC-y2hR3Ud8ihsHk-11" style="edgeStyle=orthogonalEdgeStyle;rounded=0;orthogonalLoop=1;jettySize=auto;html=1;entryX=1;entryY=0.75;entryDx=0;entryDy=0;strokeWidth=0.5;endSize=3;entryPerimeter=0;exitX=0.25;exitY=0;exitDx=0;exitDy=0;" parent="1" source="bN4hetcuTy7aG8nyouE3-227" target="bN4hetcuTy7aG8nyouE3-121" edge="1">
          <mxGeometry relative="1" as="geometry">
            <Array as="points">
              <mxPoint x="700" y="210" />
              <mxPoint x="700" y="161" />
            </Array>
            <mxPoint x="700" y="200" as="sourcePoint" />
            <mxPoint x="570.0000000000002" y="163.00000000000006" as="targetPoint" />
          </mxGeometry>
        </mxCell>
        <mxCell id="mSgQFC-y2hR3Ud8ihsHk-12" value="&lt;font style=&quot;font-size: 6px;&quot;&gt;&lt;b&gt;&lt;i&gt;lead_investor (n:n)&lt;/i&gt;&lt;/b&gt;&lt;/font&gt;" style="edgeLabel;html=1;align=center;verticalAlign=middle;resizable=0;points=[];fontSize=10;" parent="mSgQFC-y2hR3Ud8ihsHk-11" vertex="1" connectable="0">
          <mxGeometry x="-0.3892" y="-1" relative="1" as="geometry">
            <mxPoint x="-37" y="-9" as="offset" />
          </mxGeometry>
        </mxCell>
        <mxCell id="mSgQFC-y2hR3Ud8ihsHk-14" value="&lt;font style=&quot;font-size: 12px;&quot;&gt;Acquisition&lt;/font&gt;" style="text;html=1;resizable=0;autosize=1;align=center;verticalAlign=middle;points=[];fillColor=none;strokeColor=none;rounded=0;sketch=0;fontSize=7;fontStyle=1" parent="1" vertex="1">
          <mxGeometry x="300" y="132.5" width="90" height="30" as="geometry" />
        </mxCell>
        <mxCell id="mSgQFC-y2hR3Ud8ihsHk-18" style="edgeStyle=orthogonalEdgeStyle;rounded=0;orthogonalLoop=1;jettySize=auto;html=1;exitX=1;exitY=0.2;exitDx=0;exitDy=0;entryX=0.26;entryY=1;entryDx=0;entryDy=0;entryPerimeter=0;fontSize=7;endSize=3;strokeWidth=0.5;curved=1;exitPerimeter=0;" parent="1" source="bN4hetcuTy7aG8nyouE3-230" target="bN4hetcuTy7aG8nyouE3-227" edge="1">
          <mxGeometry relative="1" as="geometry">
            <mxPoint x="570.0000000000002" y="369" as="sourcePoint" />
            <mxPoint x="710.2" y="249.9999999999999" as="targetPoint" />
          </mxGeometry>
        </mxCell>
        <mxCell id="mSgQFC-y2hR3Ud8ihsHk-19" value="sponsor (n:n)" style="edgeLabel;html=1;align=center;verticalAlign=middle;resizable=0;points=[];fontSize=6;fontStyle=3" parent="mSgQFC-y2hR3Ud8ihsHk-18" vertex="1" connectable="0">
          <mxGeometry x="0.1076" relative="1" as="geometry">
            <mxPoint x="19" y="-11" as="offset" />
          </mxGeometry>
        </mxCell>
        <mxCell id="mSgQFC-y2hR3Ud8ihsHk-21" value="&lt;font style=&quot;font-size: 12px;&quot;&gt;Jobs&lt;/font&gt;" style="text;html=1;resizable=0;autosize=1;align=center;verticalAlign=middle;points=[];fillColor=none;strokeColor=none;rounded=0;sketch=0;fontSize=7;fontStyle=1" parent="1" vertex="1">
          <mxGeometry x="500" y="224" width="50" height="30" as="geometry" />
        </mxCell>
        <mxCell id="mSgQFC-y2hR3Ud8ihsHk-24" value="&lt;font style=&quot;font-size: 12px;&quot;&gt;IPOS&lt;/font&gt;" style="text;html=1;resizable=0;autosize=1;align=center;verticalAlign=middle;points=[];fillColor=none;strokeColor=none;rounded=0;sketch=0;fontSize=7;fontStyle=1" parent="1" vertex="1">
          <mxGeometry x="199" y="224" width="50" height="30" as="geometry" />
        </mxCell>
        <mxCell id="mSgQFC-y2hR3Ud8ihsHk-27" value="&lt;font style=&quot;font-size: 6px;&quot;&gt;organizer (n:n)&lt;/font&gt;" style="edgeLabel;html=1;align=center;verticalAlign=middle;resizable=0;points=[];fontSize=6;fontStyle=3" parent="1" vertex="1" connectable="0">
          <mxGeometry x="696.0011379508371" y="286.9955582329157" as="geometry" />
        </mxCell>
        <mxCell id="mSgQFC-y2hR3Ud8ihsHk-33" value="speaker (n:n)" style="edgeLabel;html=1;align=center;verticalAlign=middle;resizable=0;points=[];fontSize=6;fontStyle=3" parent="1" vertex="1" connectable="0">
          <mxGeometry x="384.8888888888889" y="312.5" as="geometry" />
        </mxCell>
        <mxCell id="mSgQFC-y2hR3Ud8ihsHk-34" value="contestant (n:n)" style="edgeLabel;html=1;align=center;verticalAlign=middle;resizable=0;points=[];fontSize=6;fontStyle=3" parent="1" vertex="1" connectable="0">
          <mxGeometry x="391.1112805631619" y="326.7646997601928" as="geometry" />
        </mxCell>
        <mxCell id="mSgQFC-y2hR3Ud8ihsHk-35" value="exhibitor (n:n)" style="edgeLabel;html=1;align=center;verticalAlign=middle;resizable=0;points=[];fontSize=6;fontStyle=3" parent="1" vertex="1" connectable="0">
          <mxGeometry x="399.44444444444457" y="339.0000000000001" as="geometry" />
        </mxCell>
        <mxCell id="mSgQFC-y2hR3Ud8ihsHk-36" value="sponsor (n:n)" style="edgeLabel;html=1;align=center;verticalAlign=middle;resizable=0;points=[];fontSize=6;fontStyle=3" parent="1" vertex="1" connectable="0">
          <mxGeometry x="374.2222222222224" y="301.0000000000001" as="geometry" />
        </mxCell>
        <mxCell id="mSgQFC-y2hR3Ud8ihsHk-37" value="&lt;font style=&quot;font-size: 6px;&quot;&gt;organizer (n:n)&lt;/font&gt;" style="edgeLabel;html=1;align=center;verticalAlign=middle;resizable=0;points=[];fontSize=6;fontStyle=3" parent="1" vertex="1" connectable="0">
          <mxGeometry x="366.0011379508371" y="287.9955582329157" as="geometry" />
        </mxCell>
        <mxCell id="mSgQFC-y2hR3Ud8ihsHk-38" value="&lt;font style=&quot;font-size: 12px;&quot;&gt;Organizations&lt;/font&gt;" style="text;html=1;resizable=0;autosize=1;align=center;verticalAlign=middle;points=[];fillColor=none;strokeColor=none;rounded=0;sketch=0;fontSize=7;fontStyle=1" parent="1" vertex="1">
          <mxGeometry x="294.89" y="221" width="100" height="30" as="geometry" />
        </mxCell>
        <mxCell id="mSgQFC-y2hR3Ud8ihsHk-39" value="&lt;font style=&quot;font-size: 12px;&quot;&gt;Events&lt;/font&gt;" style="text;html=1;resizable=0;autosize=1;align=center;verticalAlign=middle;points=[];fillColor=none;strokeColor=none;rounded=0;sketch=0;fontSize=7;fontStyle=1" parent="1" vertex="1">
          <mxGeometry x="495" y="314" width="60" height="30" as="geometry" />
        </mxCell>
        <mxCell id="mSgQFC-y2hR3Ud8ihsHk-40" value="&lt;font style=&quot;font-size: 12px;&quot;&gt;Funds&lt;/font&gt;" style="text;html=1;resizable=0;autosize=1;align=center;verticalAlign=middle;points=[];fillColor=none;strokeColor=none;rounded=0;sketch=0;fontSize=7;fontStyle=1" parent="1" vertex="1">
          <mxGeometry x="194" y="307.5" width="60" height="30" as="geometry" />
        </mxCell>
        <mxCell id="mSgQFC-y2hR3Ud8ihsHk-44" value="&lt;div style=&quot;text-align: left;&quot;&gt;&lt;span style=&quot;font-size: 6.2px;&quot;&gt;&lt;br&gt;&lt;/span&gt;&lt;/div&gt;" style="text;html=1;align=center;verticalAlign=middle;resizable=0;points=[];autosize=1;strokeColor=none;fillColor=none;" parent="1" vertex="1">
          <mxGeometry x="202" y="224" width="20" height="30" as="geometry" />
        </mxCell>
      </root>
    </mxGraphModel>
  </diagram>
</mxfile>
